<svg id="svg" version="1.1" xmlns="http://www.w3.org/2000/svg" xmlns:xlink="http://www.w3.org/1999/xlink" width="400" height="400" viewBox="0, 0, 400,400"><g id="svgg"><path id="path0" d="M0.000 200.000 L 0.000 400.000 200.000 400.000 L 400.000 400.000 400.000 200.000 L 400.000 0.000 200.000 0.000 L 0.000 0.000 0.000 200.000 M256.333 86.466 C 256.333 86.539,255.257 87.683,253.943 89.008 C 251.749 91.218,251.493 91.540,250.841 92.917 C 250.449 93.742,250.066 94.542,249.988 94.696 C 249.802 95.063,248.631 98.683,248.086 100.578 C 247.556 102.423,247.168 104.752,247.167 106.102 C 247.167 107.061,247.126 107.167,246.458 107.931 L 245.750 108.743 246.534 108.093 C 246.965 107.735,247.279 107.380,247.231 107.303 C 247.183 107.226,247.375 107.117,247.656 107.061 C 247.937 107.004,248.167 106.903,248.167 106.836 C 248.167 106.473,252.204 103.741,254.314 102.677 C 255.350 102.153,259.181 100.792,259.295 100.907 C 259.328 100.939,256.625 105.079,253.291 110.108 C 247.476 118.875,246.883 119.835,246.822 120.583 C 246.685 122.263,246.723 122.258,250.773 120.117 C 266.909 111.586,281.876 108.834,294.811 112.017 C 299.454 113.160,303.351 114.873,305.019 116.505 C 306.276 117.735,306.261 117.831,304.851 117.565 C 299.453 116.544,293.592 117.134,284.583 119.604 C 279.486 121.002,269.685 125.145,266.190 127.379 L 265.298 127.950 265.940 128.203 C 266.294 128.342,267.183 128.587,267.917 128.747 C 269.315 129.053,270.292 129.465,270.655 129.903 C 270.920 130.222,270.876 130.240,269.167 130.506 C 264.059 131.300,253.412 133.888,253.544 134.304 C 253.566 134.372,253.328 134.657,253.016 134.936 C 252.112 135.745,252.315 136.094,254.544 137.567 C 267.656 146.227,279.645 165.407,284.426 185.375 C 284.685 186.454,283.970 185.827,282.442 183.634 C 277.878 177.083,272.191 171.671,262.235 164.407 C 258.795 161.897,256.958 160.672,255.417 159.860 L 254.417 159.333 254.367 160.333 C 254.297 161.750,254.138 161.626,251.467 158.065 C 249.861 155.924,249.610 156.684,250.581 160.750 C 250.800 161.667,251.029 163.054,251.090 163.833 C 251.151 164.612,251.412 166.078,251.670 167.090 C 252.293 169.532,252.628 172.257,252.358 172.688 C 252.196 172.949,252.223 173.090,252.511 173.479 C 252.775 173.836,252.960 174.619,253.269 176.684 C 254.124 182.406,254.490 185.175,254.753 187.917 C 254.903 189.475,255.058 190.918,255.098 191.123 L 255.172 191.496 262.252 191.540 L 269.331 191.583 268.189 193.500 C 267.561 194.554,265.622 197.817,263.882 200.750 C 262.141 203.683,259.493 208.141,257.998 210.656 L 255.279 215.228 255.067 217.822 C 254.951 219.249,254.807 220.829,254.747 221.333 C 254.679 221.906,254.697 222.187,254.794 222.083 C 254.927 221.942,263.138 208.140,270.755 195.256 L 272.926 191.583 294.880 191.541 C 306.954 191.518,316.833 191.536,316.833 191.582 C 316.833 191.628,312.469 199.016,307.134 208.000 L 297.434 224.333 282.810 224.333 L 268.187 224.333 266.593 226.983 C 265.717 228.441,265.000 229.678,265.000 229.733 C 265.000 229.788,267.569 229.834,270.708 229.835 C 275.786 229.836,276.566 229.871,277.769 230.160 C 285.788 232.083,290.144 240.635,286.896 248.083 C 286.576 248.817,286.288 249.537,286.255 249.683 C 286.207 249.899,277.984 264.030,275.258 268.583 L 274.559 269.750 183.595 269.792 C 102.340 269.829,92.641 269.807,92.728 269.581 C 92.781 269.442,99.939 257.010,108.633 241.956 C 117.328 226.901,128.443 207.646,133.334 199.167 C 138.225 190.688,142.837 182.700,143.584 181.417 C 144.330 180.133,146.878 175.727,149.246 171.625 L 153.551 164.167 178.651 164.164 L 203.750 164.161 205.130 161.451 C 207.245 157.299,208.660 155.149,212.304 150.553 C 213.405 149.166,213.498 148.991,213.302 148.678 C 212.939 148.097,213.066 148.032,208.168 151.313 C 204.642 153.675,202.712 155.280,199.364 158.631 C 195.469 162.529,195.623 162.491,195.469 159.581 C 194.892 148.655,199.223 142.409,210.390 138.069 L 212.029 137.431 211.429 137.224 C 205.152 135.051,182.819 133.287,170.500 133.992 C 168.529 134.104,165.905 134.171,164.669 134.140 L 162.422 134.083 164.503 132.735 C 181.450 121.749,200.335 117.962,217.976 122.014 C 219.568 122.379,221.217 122.726,221.642 122.784 C 222.066 122.842,222.513 122.989,222.635 123.111 C 223.315 123.791,223.634 123.322,223.029 122.532 C 222.770 122.194,222.144 121.354,221.637 120.667 C 218.805 116.823,212.054 111.536,205.607 108.113 L 202.631 106.533 204.107 105.839 C 206.760 104.593,209.740 104.036,212.667 104.240 C 220.241 104.766,223.326 106.399,228.385 112.560 L 230.555 115.203 230.850 114.811 C 231.168 114.389,231.576 113.041,231.750 111.833 C 231.945 110.474,232.991 106.687,233.743 104.611 C 237.450 94.385,243.733 88.132,251.667 86.772 C 253.998 86.373,256.333 86.220,256.333 86.466 M239.115 117.625 C 238.424 118.775,237.999 119.602,238.004 119.783 C 238.006 119.857,238.250 119.467,238.547 118.917 C 238.844 118.367,239.261 117.635,239.474 117.292 C 239.686 116.948,239.822 116.667,239.776 116.667 C 239.729 116.667,239.432 117.098,239.115 117.625 M214.090 147.822 C 213.923 148.092,214.286 148.174,214.502 147.915 C 214.669 147.713,214.659 147.667,214.447 147.667 C 214.304 147.667,214.143 147.736,214.090 147.822 M213.517 148.153 C 213.120 148.404,213.426 148.885,213.841 148.663 C 214.180 148.481,214.215 148.152,213.906 148.055 C 213.820 148.028,213.645 148.072,213.517 148.153 M231.542 154.249 C 231.427 154.379,231.333 154.551,231.333 154.631 C 231.333 154.712,231.165 154.874,230.958 154.993 C 230.541 155.233,227.173 158.801,224.343 162.000 L 222.501 164.083 224.642 164.167 L 226.784 164.250 223.513 169.917 C 221.714 173.033,218.979 177.777,217.435 180.458 L 214.627 185.333 209.530 185.333 L 204.433 185.333 201.713 188.125 L 198.994 190.917 199.087 188.667 C 199.138 187.429,199.218 186.173,199.264 185.874 L 199.349 185.332 182.556 185.374 L 165.763 185.417 160.137 195.167 C 157.043 200.529,153.972 205.854,153.312 207.000 C 152.653 208.146,151.762 209.683,151.334 210.417 C 150.905 211.150,149.930 212.838,149.167 214.167 C 148.404 215.496,147.430 217.183,147.002 217.917 C 146.575 218.650,145.600 220.338,144.836 221.667 C 144.072 222.996,143.096 224.683,142.667 225.417 C 142.238 226.150,141.282 227.800,140.543 229.083 C 139.803 230.367,136.978 235.265,134.266 239.967 C 131.553 244.670,129.333 248.552,129.333 248.592 C 129.333 248.633,140.227 248.664,153.542 248.660 L 177.750 248.653 178.703 247.261 C 179.227 246.495,180.262 245.148,181.002 244.268 L 182.348 242.667 179.591 242.667 C 178.074 242.667,176.833 242.640,176.833 242.607 C 176.833 242.574,178.095 240.418,179.638 237.815 C 184.300 229.950,194.593 212.616,196.523 209.381 C 198.716 205.704,198.701 206.000,196.692 206.000 C 194.693 206.000,195.209 205.455,191.883 211.083 C 190.420 213.558,187.173 219.033,184.667 223.250 C 182.162 227.467,178.580 233.504,176.709 236.667 C 174.837 239.829,173.251 242.474,173.185 242.543 C 173.118 242.613,169.787 242.651,165.782 242.627 L 158.501 242.583 160.143 239.833 C 161.046 238.321,162.987 235.058,164.457 232.583 C 165.926 230.108,170.062 223.141,173.647 217.101 C 177.233 211.061,180.167 206.092,180.167 206.060 C 180.167 206.027,179.380 206.000,178.419 206.000 L 176.671 206.000 176.245 206.675 C 175.817 207.353,174.869 208.948,162.090 230.500 C 158.257 236.963,155.035 242.345,154.928 242.460 C 154.777 242.624,153.147 242.661,147.476 242.627 L 140.218 242.583 142.002 239.583 C 143.805 236.553,147.940 229.592,153.834 219.667 C 155.603 216.688,158.410 211.963,160.073 209.167 C 161.735 206.371,164.774 201.252,166.827 197.792 L 170.559 191.500 196.193 191.500 L 221.826 191.500 221.099 192.708 C 220.402 193.867,207.438 215.697,200.736 226.999 C 198.970 229.977,197.542 232.431,197.563 232.452 C 197.584 232.473,198.572 232.172,199.759 231.784 L 201.917 231.079 202.833 229.541 L 203.750 228.004 218.411 227.960 L 233.071 227.917 234.259 225.917 C 238.082 219.480,242.133 212.656,243.857 209.752 C 244.944 207.919,245.833 206.326,245.833 206.210 C 245.833 206.044,244.320 206.000,238.671 206.000 L 231.508 206.000 228.706 210.708 C 227.166 213.298,224.712 217.423,223.254 219.875 L 220.604 224.333 213.302 224.333 C 209.286 224.333,206.000 224.307,206.000 224.274 C 206.000 224.242,208.892 219.348,212.427 213.399 C 215.962 207.450,220.331 200.091,222.135 197.046 L 225.417 191.508 235.563 191.504 L 245.710 191.500 245.595 189.625 C 245.310 184.927,244.662 178.897,244.397 178.469 C 244.354 178.399,243.630 177.986,242.787 177.551 C 236.111 174.103,232.950 168.443,232.239 158.667 C 232.109 156.879,231.956 155.210,231.898 154.958 C 231.833 154.670,231.863 154.500,231.981 154.500 C 232.083 154.500,232.167 154.387,232.167 154.250 C 232.167 153.937,231.817 153.936,231.542 154.249 M145.295 164.542 C 145.161 164.748,144.449 165.967,143.713 167.250 C 142.977 168.533,141.142 171.721,139.635 174.333 C 138.128 176.946,136.085 180.490,135.094 182.208 L 133.294 185.333 121.060 185.333 L 108.827 185.333 109.288 184.535 C 109.542 184.095,112.293 179.333,115.402 173.951 L 121.054 164.167 133.296 164.167 L 145.538 164.167 145.295 164.542 M110.177 187.625 C 110.847 188.794,112.158 191.063,113.091 192.667 C 114.024 194.271,116.122 197.908,117.753 200.750 C 119.385 203.592,120.794 206.038,120.886 206.185 C 121.012 206.390,120.841 206.824,120.161 208.019 C 118.881 210.269,86.663 266.084,85.466 268.125 L 84.464 269.833 72.298 269.833 C 61.936 269.833,60.144 269.799,60.221 269.600 C 60.270 269.472,65.351 260.640,71.513 249.975 C 77.674 239.310,83.970 228.408,85.503 225.750 C 87.036 223.092,92.664 213.342,98.009 204.083 C 103.354 194.825,107.955 186.856,108.232 186.375 C 108.885 185.243,108.770 185.169,110.177 187.625 M278.015 207.737 C 277.457 208.692,277.000 209.517,277.000 209.570 C 277.000 209.623,280.254 209.667,284.232 209.667 L 291.464 209.667 292.482 207.947 C 293.042 207.001,293.500 206.176,293.500 206.114 C 293.500 206.051,290.244 206.000,286.265 206.000 L 279.031 206.000 278.015 207.737 " stroke="none" fill="#ffffff" fill-rule="evenodd"></path><path id="path1" d="M178.609 164.333 L 153.469 164.417 141.823 184.583 C 135.418 195.675,129.657 205.650,129.022 206.750 C 128.386 207.850,125.901 212.162,123.500 216.333 C 121.098 220.504,118.590 224.854,117.927 226.000 C 117.264 227.146,115.835 229.621,114.752 231.500 C 113.668 233.379,112.127 236.042,111.327 237.417 C 110.103 239.520,100.764 255.695,96.124 263.750 C 95.384 265.033,94.426 266.683,93.993 267.417 C 93.561 268.150,93.083 268.994,92.933 269.292 L 92.658 269.833 129.075 269.833 L 165.492 269.833 165.726 269.458 C 165.854 269.252,167.666 266.158,169.753 262.583 C 171.840 259.008,174.506 254.471,175.677 252.500 L 177.806 248.917 153.486 248.874 C 140.110 248.851,129.167 248.791,129.167 248.741 C 129.167 248.691,129.681 247.772,130.309 246.700 C 130.937 245.627,132.337 243.213,133.420 241.333 C 134.502 239.454,135.931 236.979,136.594 235.833 C 137.257 234.688,140.328 229.362,143.419 224.000 C 146.510 218.637,149.435 213.575,149.919 212.750 C 150.402 211.925,153.326 206.862,156.415 201.500 C 159.504 196.137,162.575 190.813,163.238 189.667 C 163.902 188.521,164.736 187.077,165.091 186.458 L 165.736 185.333 190.160 185.327 L 214.583 185.320 220.605 174.868 L 226.627 164.417 224.272 164.313 C 221.743 164.201,217.372 164.203,178.609 164.333 " stroke="none" fill="#030405" fill-rule="evenodd"></path><path id="path2" d="M195.385 157.417 C 195.386 157.967,195.417 158.172,195.454 157.872 C 195.491 157.572,195.490 157.122,195.452 156.872 C 195.414 156.622,195.384 156.867,195.385 157.417 M244.982 232.544 C 244.101 234.032,242.390 236.919,241.179 238.958 L 238.977 242.667 217.072 242.667 C 205.024 242.667,195.167 242.622,195.167 242.567 C 195.167 242.488,199.399 235.308,201.501 231.822 L 201.960 231.060 199.688 231.804 L 197.417 232.547 194.417 237.606 L 191.417 242.666 186.882 242.666 L 182.348 242.667 181.029 244.236 C 179.315 246.274,177.784 248.453,177.916 248.666 C 177.973 248.758,177.799 249.153,177.528 249.542 C 177.257 249.931,176.401 251.338,175.624 252.667 C 173.770 255.840,171.616 259.518,169.891 262.458 C 166.218 268.718,165.667 269.669,165.667 269.748 C 165.667 269.795,190.167 269.815,220.113 269.792 L 274.559 269.750 275.258 268.583 C 277.984 264.030,286.207 249.899,286.255 249.683 C 286.288 249.537,286.576 248.817,286.896 248.083 C 290.144 240.635,285.788 232.083,277.769 230.160 C 276.565 229.871,275.786 229.836,270.656 229.835 L 264.894 229.833 261.239 236.006 C 259.228 239.401,257.508 242.290,257.417 242.425 C 257.273 242.637,256.235 242.665,249.965 242.627 L 242.680 242.583 243.312 241.500 C 243.660 240.904,245.258 238.204,246.864 235.500 C 248.470 232.796,249.873 230.415,249.981 230.208 L 250.178 229.833 248.381 229.836 L 246.583 229.839 244.982 232.544 " stroke="none" fill="#fae837" fill-rule="evenodd"></path><path id="path3" d="M241.773 152.085 C 241.599 152.536,241.654 154.435,241.911 156.854 C 242.492 162.326,243.797 166.448,246.916 172.667 C 247.721 174.271,248.819 176.512,249.356 177.646 L 250.332 179.710 249.374 179.600 C 248.848 179.540,247.560 179.268,246.512 178.997 C 244.241 178.409,244.438 178.277,244.739 180.185 C 244.999 181.824,245.410 186.076,245.584 188.917 C 245.640 189.833,245.725 190.790,245.773 191.042 L 245.860 191.500 250.430 191.500 L 255.000 191.500 255.000 191.080 C 255.000 190.209,254.312 183.978,253.923 181.333 C 252.850 174.024,252.808 173.807,252.368 173.295 C 252.173 173.067,252.163 172.955,252.321 172.765 C 252.603 172.425,252.266 169.615,251.658 167.233 C 251.398 166.215,251.136 164.790,251.077 164.066 C 251.018 163.342,250.822 162.112,250.643 161.333 C 250.463 160.554,250.212 159.174,250.083 158.267 C 249.810 156.330,249.451 155.823,247.750 154.966 C 247.200 154.690,245.850 153.914,244.750 153.243 C 242.521 151.884,241.937 151.657,241.773 152.085 M250.858 222.701 L 246.675 229.750 248.367 229.798 C 249.583 229.832,250.116 229.785,250.262 229.631 C 250.551 229.327,254.452 222.750,254.561 222.385 C 254.690 221.951,255.199 215.810,255.113 215.724 C 255.073 215.684,253.158 218.824,250.858 222.701 " stroke="none" fill="#753a10" fill-rule="evenodd"></path><path id="path4" d="M209.318 104.342 C 207.659 104.512,205.716 105.089,203.901 105.951 L 202.624 106.557 203.770 107.129 C 211.875 111.173,219.167 116.880,222.453 121.750 C 223.676 123.562,224.090 123.863,226.890 124.980 C 227.608 125.267,228.356 125.614,228.552 125.751 C 229.652 126.521,229.727 126.269,230.178 120.324 L 230.564 115.232 228.998 113.324 C 225.300 108.818,223.856 107.513,221.083 106.167 C 218.050 104.694,213.207 103.943,209.318 104.342 M209.822 138.312 C 199.347 142.671,195.594 147.752,195.587 157.583 C 195.583 162.758,195.502 162.672,197.902 160.048 C 200.648 157.046,203.411 154.627,206.989 152.095 C 209.683 150.188,212.619 148.333,212.946 148.333 C 213.113 148.332,213.496 148.182,213.796 147.999 C 214.096 147.816,214.448 147.667,214.579 147.667 C 214.710 147.667,215.702 146.822,216.784 145.789 C 217.865 144.756,219.106 143.626,219.542 143.278 C 219.977 142.929,220.333 142.523,220.333 142.375 C 220.333 141.397,215.959 138.572,213.307 137.837 C 211.778 137.413,212.080 137.372,209.822 138.312 M237.345 149.850 C 235.953 150.406,232.167 153.507,232.167 154.091 C 232.167 154.301,232.083 154.500,231.981 154.534 C 231.845 154.579,231.844 154.841,231.976 155.506 C 232.076 156.007,232.233 157.654,232.327 159.167 C 233.050 170.852,239.370 178.424,249.381 179.601 L 250.333 179.713 249.356 177.648 C 248.819 176.512,247.721 174.271,246.916 172.667 C 243.275 165.409,241.497 158.752,241.694 153.115 L 241.740 151.814 240.100 150.740 C 238.457 149.664,238.099 149.548,237.345 149.850 M153.442 164.292 C 153.373 164.405,170.588 164.404,194.667 164.290 C 199.662 164.266,192.448 164.229,178.635 164.207 C 164.821 164.185,153.485 164.223,153.442 164.292 M223.542 164.290 C 224.160 164.322,225.173 164.322,225.792 164.290 C 226.410 164.258,225.904 164.232,224.667 164.232 C 223.429 164.232,222.923 164.258,223.542 164.290 M129.167 248.707 C 129.167 248.775,140.154 248.850,153.583 248.874 C 167.013 248.897,178.000 248.861,178.000 248.793 C 178.000 248.725,167.012 248.650,153.583 248.626 C 140.154 248.603,129.167 248.639,129.167 248.707 " stroke="none" fill="#477b30" fill-rule="evenodd"></path><path id="path5" d="M253.917 86.517 C 242.924 87.420,234.275 97.450,231.741 112.236 C 231.496 113.665,230.953 115.167,230.680 115.167 C 230.612 115.167,230.544 115.523,230.529 115.958 C 230.514 116.394,230.470 117.087,230.432 117.500 C 230.393 117.912,230.239 119.825,230.089 121.750 C 229.749 126.110,229.604 126.488,228.556 125.754 C 228.363 125.619,227.540 125.240,226.727 124.913 C 225.915 124.585,224.857 124.096,224.378 123.825 C 223.898 123.555,223.279 123.333,223.003 123.333 C 222.726 123.333,222.500 123.265,222.500 123.182 C 222.500 123.098,221.956 122.939,221.292 122.827 C 220.627 122.716,219.071 122.369,217.833 122.057 C 207.392 119.426,191.225 120.447,181.667 124.342 C 181.254 124.510,180.092 124.960,179.083 125.342 C 174.148 127.210,168.340 130.239,163.701 133.362 L 162.829 133.950 165.135 134.064 C 166.404 134.127,167.549 134.142,167.679 134.098 C 170.221 133.242,191.629 133.974,201.750 135.263 C 206.513 135.870,211.735 136.937,212.011 137.360 C 212.063 137.439,212.650 137.655,213.315 137.839 C 215.403 138.418,217.901 139.833,219.542 141.367 C 220.541 142.301,220.533 142.502,219.458 143.349 C 214.231 147.471,208.380 155.086,204.519 162.792 L 203.830 164.167 213.067 164.167 L 222.304 164.167 224.339 161.875 C 226.466 159.479,230.999 154.628,231.579 154.125 C 234.766 151.366,237.273 149.667,238.158 149.667 C 238.324 149.667,239.201 150.153,240.105 150.747 C 241.023 151.351,241.936 151.829,242.172 151.831 C 242.404 151.832,243.508 152.393,244.625 153.078 C 246.597 154.286,248.333 155.237,248.333 155.109 C 248.333 154.832,246.854 152.447,246.353 151.917 C 246.006 151.550,245.504 150.980,245.236 150.651 C 244.969 150.322,243.660 148.784,242.327 147.234 C 240.995 145.685,239.186 143.554,238.307 142.500 C 235.485 139.117,236.023 139.072,231.811 143.040 C 220.724 153.485,217.420 156.374,217.750 155.335 C 217.807 155.152,217.887 154.833,217.926 154.626 C 217.992 154.276,218.066 153.935,218.234 153.208 C 218.812 150.703,221.138 145.562,222.356 144.096 C 222.439 143.998,222.967 143.288,223.531 142.519 C 224.714 140.906,227.885 137.574,229.726 136.009 C 230.421 135.417,230.970 134.914,230.946 134.890 C 230.910 134.854,226.055 133.965,224.667 133.740 C 224.246 133.672,223.364 133.524,222.750 133.417 C 220.956 133.107,218.560 132.748,214.917 132.243 C 212.533 131.913,210.358 131.612,210.083 131.574 C 208.997 131.422,208.064 131.296,207.667 131.247 C 205.531 130.985,197.958 129.986,197.518 129.909 C 196.037 129.649,202.477 126.327,206.375 125.341 C 211.631 124.010,219.963 124.179,225.792 125.733 C 225.998 125.788,226.298 125.865,226.458 125.903 C 226.619 125.941,227.635 126.243,228.717 126.573 C 230.548 127.132,231.089 127.336,232.963 128.179 C 234.277 128.771,234.381 128.707,235.088 126.875 C 235.433 125.981,236.108 124.275,236.588 123.083 C 237.067 121.892,237.586 120.579,237.740 120.167 C 238.630 117.789,241.629 113.463,245.618 108.802 C 246.784 107.440,247.000 107.096,247.000 106.599 C 247.000 104.641,247.968 100.244,249.150 96.833 C 250.708 92.339,251.397 91.233,254.433 88.356 C 256.005 86.866,256.398 86.284,255.782 86.357 C 255.673 86.369,254.833 86.442,253.917 86.517 M281.000 110.840 C 271.598 111.390,260.437 114.949,249.417 120.911 C 247.189 122.117,246.916 122.186,246.765 121.583 C 246.564 120.783,245.524 121.559,244.897 122.978 C 244.672 123.486,244.126 124.468,243.683 125.160 C 243.240 125.851,242.679 126.792,242.436 127.250 C 242.193 127.708,241.727 128.560,241.400 129.143 C 241.074 129.726,240.886 130.153,240.984 130.093 C 241.258 129.924,248.137 128.255,249.250 128.087 C 249.433 128.060,249.846 127.986,250.167 127.924 C 254.158 127.147,259.645 127.007,263.167 127.592 C 263.487 127.645,263.862 127.708,264.000 127.731 C 264.137 127.753,264.459 127.832,264.715 127.906 C 265.047 128.001,265.262 127.967,265.465 127.787 C 267.145 126.297,276.819 121.963,282.417 120.193 C 291.499 117.321,301.146 116.182,305.000 117.525 C 306.561 118.069,304.734 116.011,302.730 114.967 C 298.068 112.540,287.365 110.194,283.250 110.698 C 283.158 110.709,282.146 110.773,281.000 110.840 M249.917 134.775 C 247.518 135.455,244.901 136.157,244.352 136.268 C 242.769 136.587,242.509 137.080,243.375 138.118 C 243.673 138.475,244.161 139.064,244.459 139.425 C 247.648 143.295,251.003 149.220,252.290 153.250 C 252.902 155.170,254.000 158.904,254.000 159.068 C 254.000 159.102,254.579 159.405,255.287 159.741 C 257.231 160.664,258.789 161.727,265.000 166.367 C 272.936 172.297,278.489 177.759,282.575 183.654 C 284.095 185.848,284.582 186.252,284.239 185.037 C 282.742 179.736,282.186 177.927,281.346 175.623 C 280.179 172.419,278.363 168.093,277.181 165.702 C 276.715 164.760,276.333 163.970,276.333 163.947 C 276.333 163.792,273.510 158.741,272.589 157.250 C 267.507 149.018,261.245 142.163,255.000 137.996 C 252.308 136.200,251.929 135.599,252.993 134.812 C 254.112 133.985,252.762 133.968,249.917 134.775 M199.276 187.208 C 199.217 188.240,199.168 189.420,199.167 189.831 L 199.167 190.579 201.667 188.083 C 203.042 186.711,204.167 185.530,204.167 185.460 C 204.167 185.391,203.091 185.333,201.775 185.333 L 199.384 185.333 199.276 187.208 " stroke="none" fill="#2da137" fill-rule="evenodd"></path><path id="path6" d="M254.708 86.448 C 254.869 86.490,255.131 86.490,255.292 86.448 C 255.452 86.406,255.321 86.372,255.000 86.372 C 254.679 86.372,254.548 86.406,254.708 86.448 M254.162 88.625 L 253.083 89.750 254.208 88.671 C 255.253 87.670,255.410 87.500,255.287 87.500 C 255.261 87.500,254.755 88.006,254.162 88.625 M257.582 101.401 C 254.330 102.462,250.162 104.839,248.316 106.684 C 247.611 107.389,247.169 107.243,247.137 106.295 L 247.107 105.417 247.044 106.221 C 247.009 106.664,247.061 107.123,247.159 107.241 C 247.360 107.483,246.965 107.934,246.696 107.768 C 246.613 107.717,246.403 107.842,246.231 108.046 C 245.919 108.414,245.919 108.415,246.263 108.167 C 246.453 108.029,246.265 108.249,245.846 108.655 C 245.426 109.061,245.233 109.296,245.417 109.177 C 245.600 109.059,245.404 109.289,244.981 109.689 C 244.204 110.425,241.333 114.015,241.333 114.252 C 241.333 114.322,241.202 114.487,241.042 114.619 C 240.853 114.774,240.838 114.819,241.000 114.748 C 241.137 114.687,241.063 114.801,240.833 115.000 C 240.604 115.199,240.518 115.309,240.642 115.244 C 240.796 115.163,240.777 115.265,240.581 115.563 C 240.307 115.982,240.021 116.204,240.266 115.808 C 240.340 115.687,240.312 115.660,240.190 115.736 C 240.082 115.802,240.037 115.925,240.088 116.008 C 240.221 116.222,239.849 116.863,239.660 116.746 C 239.574 116.693,239.546 116.758,239.597 116.891 C 239.648 117.024,239.598 117.190,239.486 117.259 C 239.347 117.345,239.325 117.315,239.417 117.167 C 239.504 117.025,239.486 116.989,239.366 117.063 C 239.265 117.126,239.228 117.300,239.286 117.449 C 239.361 117.646,239.329 117.683,239.169 117.585 C 239.024 117.495,238.988 117.513,239.065 117.637 C 239.214 117.879,238.868 118.541,238.660 118.413 C 238.572 118.358,238.552 118.440,238.614 118.602 C 238.688 118.795,238.660 118.849,238.530 118.769 C 238.400 118.688,238.373 118.743,238.447 118.935 C 238.527 119.145,238.498 119.185,238.336 119.085 C 238.196 118.998,238.155 119.013,238.225 119.126 C 238.381 119.379,238.166 119.853,237.954 119.722 C 237.843 119.653,237.816 119.715,237.883 119.889 C 237.942 120.042,237.922 120.167,237.839 120.167 C 237.757 120.167,237.640 120.335,237.579 120.542 C 237.519 120.748,237.075 121.892,236.593 123.083 C 236.110 124.275,235.433 125.981,235.088 126.875 C 234.381 128.707,234.277 128.771,232.963 128.179 C 231.089 127.336,230.548 127.132,228.717 126.573 C 227.635 126.243,226.619 125.941,226.458 125.903 C 226.298 125.865,225.998 125.788,225.792 125.733 C 216.488 123.252,206.411 124.212,199.327 128.254 C 196.928 129.623,196.761 129.776,197.518 129.909 C 197.958 129.986,205.531 130.985,207.667 131.247 C 208.064 131.296,208.997 131.422,210.083 131.574 C 210.358 131.612,212.533 131.913,214.917 132.243 C 219.003 132.809,222.168 133.291,223.750 133.587 C 223.933 133.622,224.308 133.686,224.583 133.729 C 225.863 133.931,230.907 134.852,230.946 134.890 C 230.970 134.914,230.421 135.417,229.726 136.009 C 227.885 137.574,224.714 140.906,223.531 142.519 C 222.967 143.288,222.439 143.998,222.356 144.096 C 221.127 145.575,218.797 150.738,218.225 153.250 C 218.093 153.834,218.005 154.239,217.925 154.638 C 217.882 154.852,217.802 155.171,217.746 155.347 C 217.420 156.372,220.767 153.444,231.811 143.040 C 236.023 139.072,235.485 139.117,238.307 142.500 C 239.992 144.521,244.089 149.311,245.711 151.157 C 246.686 152.266,247.104 152.860,248.055 154.489 C 248.387 155.060,249.039 155.770,249.813 156.406 C 250.490 156.962,251.315 157.800,251.647 158.269 C 252.616 159.640,254.018 161.333,254.182 161.333 C 254.382 161.333,254.378 159.445,254.177 159.242 C 254.091 159.155,253.786 158.258,253.501 157.250 C 251.653 150.730,249.433 146.050,245.991 141.417 C 245.056 140.158,244.671 139.672,243.375 138.118 C 242.509 137.080,242.770 136.586,244.352 136.268 C 244.821 136.174,246.504 135.727,249.833 134.814 C 252.238 134.155,253.461 134.036,253.371 134.471 C 253.346 134.592,253.403 134.643,253.499 134.584 C 253.594 134.525,253.633 134.413,253.585 134.336 C 253.328 133.920,261.559 131.837,267.750 130.752 C 271.075 130.169,271.079 130.167,270.241 129.613 C 269.492 129.117,265.422 127.953,263.167 127.589 C 259.565 127.009,254.155 127.148,250.167 127.924 C 249.846 127.986,249.433 128.060,249.250 128.087 C 248.137 128.255,241.258 129.924,240.984 130.093 C 240.886 130.153,241.074 129.726,241.400 129.143 C 241.727 128.560,242.193 127.708,242.436 127.250 C 242.679 126.792,243.240 125.851,243.683 125.160 C 244.126 124.468,244.672 123.486,244.897 122.978 C 245.396 121.848,246.464 120.854,246.709 121.292 C 246.747 121.360,246.754 121.318,246.723 121.196 C 246.521 120.393,247.251 119.155,253.201 110.210 C 256.584 105.124,259.328 100.939,259.299 100.910 C 259.270 100.881,258.497 101.102,257.582 101.401 M282.208 110.782 C 282.369 110.823,282.631 110.823,282.792 110.782 C 282.952 110.740,282.821 110.705,282.500 110.705 C 282.179 110.705,282.048 110.740,282.208 110.782 M284.542 110.782 C 284.702 110.823,284.965 110.823,285.125 110.782 C 285.285 110.740,285.154 110.705,284.833 110.705 C 284.512 110.705,284.381 110.740,284.542 110.782 M304.500 116.052 C 304.500 116.081,304.744 116.325,305.042 116.594 L 305.583 117.083 305.094 116.542 C 304.638 116.037,304.500 115.923,304.500 116.052 M296.877 117.120 C 297.131 117.158,297.506 117.157,297.711 117.117 C 297.916 117.078,297.708 117.046,297.250 117.048 C 296.792 117.049,296.624 117.081,296.877 117.120 M301.044 117.120 C 301.297 117.158,301.672 117.157,301.877 117.117 C 302.082 117.078,301.875 117.046,301.417 117.048 C 300.958 117.049,300.791 117.081,301.044 117.120 M254.333 118.250 C 254.104 118.381,253.992 118.488,254.083 118.488 C 254.175 118.488,254.438 118.381,254.667 118.250 C 254.896 118.119,255.008 118.012,254.917 118.012 C 254.825 118.012,254.563 118.119,254.333 118.250 M200.213 120.623 C 200.652 120.657,201.327 120.657,201.713 120.622 C 202.100 120.587,201.742 120.559,200.917 120.559 C 200.092 120.560,199.775 120.588,200.213 120.623 M205.297 120.623 C 205.782 120.657,206.532 120.656,206.964 120.622 C 207.396 120.588,207.000 120.560,206.083 120.561 C 205.167 120.561,204.813 120.589,205.297 120.623 M197.294 120.785 C 197.501 120.824,197.801 120.823,197.960 120.781 C 198.120 120.739,197.950 120.707,197.583 120.709 C 197.217 120.711,197.086 120.745,197.294 120.785 M209.294 120.785 C 209.501 120.824,209.801 120.823,209.960 120.781 C 210.120 120.739,209.950 120.707,209.583 120.709 C 209.217 120.711,209.086 120.745,209.294 120.785 M269.125 125.594 C 268.690 125.821,268.333 126.044,268.333 126.089 C 268.333 126.135,268.708 125.982,269.167 125.750 C 269.625 125.518,270.000 125.291,270.000 125.247 C 270.000 125.137,270.015 125.131,269.125 125.594 M175.458 133.790 C 176.123 133.822,177.210 133.822,177.875 133.790 C 178.540 133.759,177.996 133.733,176.667 133.733 C 175.338 133.733,174.794 133.759,175.458 133.790 M162.666 134.042 C 162.667 134.110,163.360 134.155,164.208 134.140 C 165.776 134.113,165.589 134.047,163.708 133.963 C 163.135 133.938,162.666 133.973,162.666 134.042 M170.708 133.948 C 170.869 133.990,171.131 133.990,171.292 133.948 C 171.452 133.906,171.321 133.872,171.000 133.872 C 170.679 133.872,170.548 133.906,170.708 133.948 M182.458 133.951 C 182.665 133.991,183.002 133.991,183.208 133.951 C 183.415 133.911,183.246 133.879,182.833 133.879 C 182.421 133.879,182.252 133.911,182.458 133.951 M168.044 134.120 C 168.297 134.158,168.672 134.157,168.877 134.117 C 169.082 134.078,168.875 134.046,168.417 134.048 C 167.958 134.049,167.791 134.081,168.044 134.120 M185.711 134.120 C 185.964 134.158,186.339 134.157,186.544 134.117 C 186.749 134.078,186.542 134.046,186.083 134.048 C 185.625 134.049,185.457 134.081,185.711 134.120 M189.295 134.287 C 189.594 134.325,190.044 134.324,190.295 134.286 C 190.545 134.248,190.300 134.217,189.750 134.218 C 189.200 134.219,188.995 134.250,189.295 134.287 M192.460 134.451 C 192.668 134.491,192.968 134.490,193.127 134.448 C 193.286 134.406,193.117 134.374,192.750 134.375 C 192.383 134.377,192.253 134.411,192.460 134.451 M194.460 134.618 C 194.668 134.658,194.968 134.656,195.127 134.615 C 195.286 134.573,195.117 134.540,194.750 134.542 C 194.383 134.544,194.253 134.578,194.460 134.618 M196.460 134.785 C 196.668 134.824,196.968 134.823,197.127 134.781 C 197.286 134.739,197.117 134.707,196.750 134.709 C 196.383 134.711,196.253 134.745,196.460 134.785 M198.294 134.951 C 198.501 134.991,198.801 134.990,198.960 134.948 C 199.120 134.906,198.950 134.874,198.583 134.875 C 198.217 134.877,198.086 134.911,198.294 134.951 M259.333 141.219 C 259.333 141.248,259.577 141.491,259.875 141.760 L 260.417 142.250 259.927 141.708 C 259.471 141.203,259.333 141.090,259.333 141.219 M262.333 144.083 C 263.108 144.862,263.780 145.500,263.826 145.500 C 263.872 145.500,263.275 144.862,262.500 144.083 C 261.725 143.304,261.053 142.667,261.007 142.667 C 260.962 142.667,261.558 143.304,262.333 144.083 M264.333 146.219 C 264.333 146.248,264.577 146.491,264.875 146.760 L 265.417 147.250 264.927 146.708 C 264.471 146.203,264.333 146.090,264.333 146.219 M229.245 156.542 L 228.250 157.583 229.292 156.589 C 230.259 155.664,230.410 155.500,230.286 155.500 C 230.261 155.500,229.792 155.969,229.245 156.542 M226.742 159.208 L 226.083 159.917 226.792 159.258 C 227.450 158.645,227.577 158.500,227.450 158.500 C 227.423 158.500,227.105 158.819,226.742 159.208 M205.750 160.167 C 205.608 160.442,205.529 160.667,205.575 160.667 C 205.621 160.667,205.774 160.442,205.917 160.167 C 206.059 159.892,206.138 159.667,206.092 159.667 C 206.046 159.667,205.892 159.892,205.750 160.167 M225.073 161.042 L 224.583 161.583 225.125 161.094 C 225.630 160.638,225.743 160.500,225.615 160.500 C 225.586 160.500,225.342 160.744,225.073 161.042 M118.583 168.458 C 117.220 170.819,114.833 174.963,113.279 177.667 C 111.726 180.371,110.091 183.202,109.647 183.958 L 108.839 185.333 121.054 185.333 L 133.268 185.333 139.208 175.042 C 142.475 169.381,145.198 164.619,145.259 164.458 C 145.363 164.182,144.721 164.167,133.215 164.167 L 121.061 164.167 118.583 168.458 M271.667 171.719 C 271.667 171.748,271.910 171.991,272.208 172.260 L 272.750 172.750 272.260 172.208 C 271.804 171.703,271.667 171.590,271.667 171.719 M275.500 175.417 C 276.551 176.471,277.449 177.333,277.495 177.333 C 277.540 177.333,276.718 176.471,275.667 175.417 C 274.615 174.362,273.718 173.500,273.672 173.500 C 273.626 173.500,274.449 174.362,275.500 175.417 M108.009 186.794 C 107.602 187.503,106.659 189.133,105.913 190.417 C 103.510 194.555,95.415 208.573,87.578 222.167 C 76.562 241.275,60.939 268.319,60.524 269.000 C 60.328 269.321,60.168 269.640,60.167 269.708 C 60.167 269.777,65.635 269.833,72.317 269.833 L 84.468 269.833 89.013 261.958 C 94.235 252.910,94.789 251.953,99.294 244.167 C 103.418 237.040,111.814 222.496,117.067 213.380 C 119.245 209.602,120.996 206.452,120.959 206.380 C 120.419 205.337,108.905 185.501,108.840 185.502 C 108.791 185.503,108.417 186.084,108.009 186.794 M199.218 186.917 C 199.219 187.467,199.250 187.672,199.287 187.372 C 199.325 187.072,199.324 186.622,199.286 186.372 C 199.248 186.122,199.217 186.367,199.218 186.917 M200.747 189.006 L 199.250 190.511 199.149 189.881 C 199.050 189.269,199.047 189.276,199.024 190.080 L 199.000 190.910 200.667 189.250 C 201.583 188.337,202.333 187.569,202.333 187.545 C 202.333 187.426,202.139 187.605,200.747 189.006 M164.165 202.292 C 160.642 208.227,156.289 215.558,154.493 218.583 C 152.697 221.608,148.803 228.171,145.840 233.167 C 142.877 238.162,140.378 242.345,140.288 242.460 C 140.156 242.629,141.586 242.662,147.505 242.627 L 154.888 242.583 158.450 236.583 C 164.844 225.814,167.996 220.505,171.213 215.083 C 172.953 212.150,174.874 208.925,175.481 207.917 L 176.586 206.083 178.376 206.036 C 179.361 206.010,180.167 206.024,180.167 206.067 C 180.167 206.111,179.217 207.745,178.056 209.698 C 176.111 212.972,174.716 215.321,166.256 229.583 C 163.820 233.689,160.419 239.407,158.796 242.125 L 158.473 242.667 165.797 242.667 L 173.122 242.667 176.861 236.375 C 178.917 232.915,183.817 224.665,187.749 218.042 L 194.898 206.000 196.709 206.000 C 197.705 206.000,198.488 206.056,198.450 206.125 C 198.163 206.640,190.124 220.194,182.164 233.583 C 179.657 237.800,177.425 241.569,177.205 241.958 L 176.805 242.667 184.116 242.667 L 191.427 242.667 192.433 240.958 C 192.986 240.019,194.776 237.000,196.411 234.250 C 198.046 231.500,203.058 223.063,207.550 215.500 C 212.041 207.938,217.021 199.553,218.616 196.867 C 220.211 194.182,221.558 191.876,221.609 191.742 C 221.690 191.531,218.430 191.500,196.137 191.500 L 170.572 191.500 164.165 202.292 M222.636 196.212 C 221.107 198.799,217.851 204.292,215.400 208.417 C 209.422 218.479,206.336 223.689,206.146 224.042 C 205.997 224.317,206.387 224.333,213.297 224.333 L 220.606 224.333 223.345 219.716 C 224.851 217.176,227.286 213.069,228.756 210.591 L 231.429 206.083 238.733 206.040 C 244.556 206.005,246.020 206.039,245.952 206.207 C 245.905 206.322,244.437 208.817,242.690 211.750 C 240.943 214.683,238.066 219.537,236.298 222.536 L 233.083 227.988 218.417 227.999 L 203.750 228.009 202.399 230.296 C 201.655 231.554,199.724 234.807,198.107 237.526 C 196.490 240.244,195.167 242.513,195.167 242.567 C 195.167 242.622,205.024 242.667,217.072 242.667 L 238.977 242.667 241.178 238.958 C 242.389 236.919,244.110 234.012,245.003 232.500 C 249.463 224.945,254.783 215.986,255.495 214.833 C 255.750 214.421,257.494 211.496,259.371 208.333 C 265.703 197.666,269.213 191.751,269.283 191.625 C 269.322 191.556,259.467 191.501,247.385 191.503 L 225.417 191.507 222.636 196.212 M270.063 196.458 C 268.443 199.185,266.202 202.954,265.083 204.833 C 261.842 210.275,255.049 221.736,254.700 222.353 C 254.350 222.971,251.200 228.265,248.762 232.333 C 247.911 233.754,246.190 236.642,244.939 238.750 L 242.663 242.583 249.956 242.629 C 255.727 242.666,257.278 242.631,257.384 242.463 C 257.458 242.346,259.723 238.537,262.416 234.000 C 265.110 229.463,267.504 225.431,267.736 225.042 L 268.158 224.333 282.795 224.333 L 297.431 224.333 300.023 219.958 C 301.449 217.552,305.815 210.197,309.725 203.614 C 313.634 197.031,316.833 191.613,316.833 191.573 C 316.833 191.533,306.973 191.500,294.921 191.500 L 273.008 191.500 270.063 196.458 M293.500 206.134 C 293.500 206.208,293.048 207.033,292.495 207.967 L 291.491 209.667 284.170 209.667 L 276.849 209.667 277.946 207.833 L 279.044 206.000 286.272 206.000 C 290.247 206.000,293.500 206.060,293.500 206.134 " stroke="none" fill="#33a936" fill-rule="evenodd"></path><path id="path7" d="M0.000 200.000 L 0.000 400.000 200.000 400.000 L 400.000 400.000 400.000 200.000 L 400.000 0.000 200.000 0.000 L 0.000 0.000 0.000 200.000 M256.333 86.466 C 256.333 86.539,255.257 87.683,253.943 89.008 C 251.749 91.218,251.493 91.540,250.841 92.917 C 250.449 93.742,250.066 94.542,249.988 94.696 C 249.802 95.063,248.631 98.683,248.086 100.578 C 247.556 102.423,247.168 104.752,247.167 106.102 C 247.167 107.061,247.126 107.167,246.458 107.931 L 245.750 108.743 246.534 108.093 C 246.965 107.735,247.279 107.380,247.231 107.303 C 247.183 107.226,247.375 107.117,247.656 107.061 C 247.937 107.004,248.167 106.903,248.167 106.836 C 248.167 106.473,252.204 103.741,254.314 102.677 C 255.350 102.153,259.181 100.792,259.295 100.907 C 259.328 100.939,256.625 105.079,253.291 110.108 C 247.476 118.875,246.883 119.835,246.822 120.583 C 246.685 122.263,246.723 122.258,250.773 120.117 C 266.909 111.586,281.876 108.834,294.811 112.017 C 299.454 113.160,303.351 114.873,305.019 116.505 C 306.276 117.735,306.261 117.831,304.851 117.565 C 299.453 116.544,293.592 117.134,284.583 119.604 C 279.486 121.002,269.685 125.145,266.190 127.379 L 265.298 127.950 265.940 128.203 C 266.294 128.342,267.183 128.587,267.917 128.747 C 269.315 129.053,270.292 129.465,270.655 129.903 C 270.920 130.222,270.876 130.240,269.167 130.506 C 264.059 131.300,253.412 133.888,253.544 134.304 C 253.566 134.372,253.328 134.657,253.016 134.936 C 252.112 135.745,252.315 136.094,254.544 137.567 C 267.656 146.227,279.645 165.407,284.426 185.375 C 284.685 186.454,283.970 185.827,282.442 183.634 C 277.878 177.083,272.191 171.671,262.235 164.407 C 258.795 161.897,256.958 160.672,255.417 159.860 L 254.417 159.333 254.367 160.333 C 254.297 161.750,254.138 161.626,251.467 158.065 C 249.861 155.924,249.610 156.684,250.581 160.750 C 250.800 161.667,251.029 163.054,251.090 163.833 C 251.151 164.612,251.412 166.078,251.670 167.090 C 252.293 169.532,252.628 172.257,252.358 172.688 C 252.196 172.949,252.223 173.090,252.511 173.479 C 252.775 173.836,252.960 174.619,253.269 176.684 C 254.124 182.406,254.490 185.175,254.753 187.917 C 254.903 189.475,255.058 190.918,255.098 191.123 L 255.172 191.496 262.252 191.540 L 269.331 191.583 268.189 193.500 C 267.561 194.554,265.622 197.817,263.882 200.750 C 262.141 203.683,259.493 208.141,257.998 210.656 L 255.279 215.228 255.067 217.822 C 254.951 219.249,254.807 220.829,254.747 221.333 C 254.679 221.906,254.697 222.187,254.794 222.083 C 254.927 221.942,263.138 208.140,270.755 195.256 L 272.926 191.583 294.880 191.541 C 306.954 191.518,316.833 191.536,316.833 191.582 C 316.833 191.628,312.469 199.016,307.134 208.000 L 297.434 224.333 282.810 224.333 L 268.187 224.333 266.593 226.983 C 265.717 228.441,265.000 229.678,265.000 229.733 C 265.000 229.788,267.569 229.834,270.708 229.835 C 275.786 229.836,276.566 229.871,277.769 230.160 C 285.788 232.083,290.144 240.635,286.896 248.083 C 286.576 248.817,286.288 249.537,286.255 249.683 C 286.207 249.899,277.984 264.030,275.258 268.583 L 274.559 269.750 183.595 269.792 C 102.340 269.829,92.641 269.807,92.728 269.581 C 92.781 269.442,99.939 257.010,108.633 241.956 C 117.328 226.901,128.443 207.646,133.334 199.167 C 138.225 190.688,142.837 182.700,143.584 181.417 C 144.330 180.133,146.878 175.727,149.246 171.625 L 153.551 164.167 178.651 164.164 L 203.750 164.161 205.130 161.451 C 207.245 157.299,208.660 155.149,212.304 150.553 C 213.405 149.166,213.498 148.991,213.302 148.678 C 212.939 148.097,213.066 148.032,208.168 151.313 C 204.642 153.675,202.712 155.280,199.364 158.631 C 195.469 162.529,195.623 162.491,195.469 159.581 C 194.892 148.655,199.223 142.409,210.390 138.069 L 212.029 137.431 211.429 137.224 C 205.152 135.051,182.819 133.287,170.500 133.992 C 168.529 134.104,165.905 134.171,164.669 134.140 L 162.422 134.083 164.503 132.735 C 181.450 121.749,200.335 117.962,217.976 122.014 C 219.568 122.379,221.217 122.726,221.642 122.784 C 222.066 122.842,222.513 122.989,222.635 123.111 C 223.315 123.791,223.634 123.322,223.029 122.532 C 222.770 122.194,222.144 121.354,221.637 120.667 C 218.805 116.823,212.054 111.536,205.607 108.113 L 202.631 106.533 204.107 105.839 C 206.760 104.593,209.740 104.036,212.667 104.240 C 220.241 104.766,223.326 106.399,228.385 112.560 L 230.555 115.203 230.850 114.811 C 231.168 114.389,231.576 113.041,231.750 111.833 C 231.945 110.474,232.991 106.687,233.743 104.611 C 237.450 94.385,243.733 88.132,251.667 86.772 C 253.998 86.373,256.333 86.220,256.333 86.466 M239.115 117.625 C 238.424 118.775,237.999 119.602,238.004 119.783 C 238.006 119.857,238.250 119.467,238.547 118.917 C 238.844 118.367,239.261 117.635,239.474 117.292 C 239.686 116.948,239.822 116.667,239.776 116.667 C 239.729 116.667,239.432 117.098,239.115 117.625 M214.090 147.822 C 213.923 148.092,214.286 148.174,214.502 147.915 C 214.669 147.713,214.659 147.667,214.447 147.667 C 214.304 147.667,214.143 147.736,214.090 147.822 M213.517 148.153 C 213.120 148.404,213.426 148.885,213.841 148.663 C 214.180 148.481,214.215 148.152,213.906 148.055 C 213.820 148.028,213.645 148.072,213.517 148.153 M231.542 154.249 C 231.427 154.379,231.333 154.551,231.333 154.631 C 231.333 154.712,231.165 154.874,230.958 154.993 C 230.541 155.233,227.173 158.801,224.343 162.000 L 222.501 164.083 224.642 164.167 L 226.784 164.250 223.513 169.917 C 221.714 173.033,218.979 177.777,217.435 180.458 L 214.627 185.333 209.530 185.333 L 204.433 185.333 201.713 188.125 L 198.994 190.917 199.087 188.667 C 199.138 187.429,199.218 186.173,199.264 185.874 L 199.349 185.332 182.556 185.374 L 165.763 185.417 160.137 195.167 C 157.043 200.529,153.972 205.854,153.312 207.000 C 152.653 208.146,151.762 209.683,151.334 210.417 C 150.905 211.150,149.930 212.838,149.167 214.167 C 148.404 215.496,147.430 217.183,147.002 217.917 C 146.575 218.650,145.600 220.338,144.836 221.667 C 144.072 222.996,143.096 224.683,142.667 225.417 C 142.238 226.150,141.282 227.800,140.543 229.083 C 139.803 230.367,136.978 235.265,134.266 239.967 C 131.553 244.670,129.333 248.552,129.333 248.592 C 129.333 248.633,140.227 248.664,153.542 248.660 L 177.750 248.653 178.703 247.261 C 179.227 246.495,180.262 245.148,181.002 244.268 L 182.348 242.667 179.591 242.667 C 178.074 242.667,176.833 242.640,176.833 242.607 C 176.833 242.574,178.095 240.418,179.638 237.815 C 184.300 229.950,194.593 212.616,196.523 209.381 C 198.716 205.704,198.701 206.000,196.692 206.000 C 194.693 206.000,195.209 205.455,191.883 211.083 C 190.420 213.558,187.173 219.033,184.667 223.250 C 182.162 227.467,178.580 233.504,176.709 236.667 C 174.837 239.829,173.251 242.474,173.185 242.543 C 173.118 242.613,169.787 242.651,165.782 242.627 L 158.501 242.583 160.143 239.833 C 161.046 238.321,162.987 235.058,164.457 232.583 C 165.926 230.108,170.062 223.141,173.647 217.101 C 177.233 211.061,180.167 206.092,180.167 206.060 C 180.167 206.027,179.380 206.000,178.419 206.000 L 176.671 206.000 176.245 206.675 C 175.817 207.353,174.869 208.948,162.090 230.500 C 158.257 236.963,155.035 242.345,154.928 242.460 C 154.777 242.624,153.147 242.661,147.476 242.627 L 140.218 242.583 142.002 239.583 C 143.805 236.553,147.940 229.592,153.834 219.667 C 155.603 216.688,158.410 211.963,160.073 209.167 C 161.735 206.371,164.774 201.252,166.827 197.792 L 170.559 191.500 196.193 191.500 L 221.826 191.500 221.099 192.708 C 220.402 193.867,207.438 215.697,200.736 226.999 C 198.970 229.977,197.542 232.431,197.563 232.452 C 197.584 232.473,198.572 232.172,199.759 231.784 L 201.917 231.079 202.833 229.541 L 203.750 228.004 218.411 227.960 L 233.071 227.917 234.259 225.917 C 238.082 219.480,242.133 212.656,243.857 209.752 C 244.944 207.919,245.833 206.326,245.833 206.210 C 245.833 206.044,244.320 206.000,238.671 206.000 L 231.508 206.000 228.706 210.708 C 227.166 213.298,224.712 217.423,223.254 219.875 L 220.604 224.333 213.302 224.333 C 209.286 224.333,206.000 224.307,206.000 224.274 C 206.000 224.242,208.892 219.348,212.427 213.399 C 215.962 207.450,220.331 200.091,222.135 197.046 L 225.417 191.508 235.563 191.504 L 245.710 191.500 245.595 189.625 C 245.310 184.927,244.662 178.897,244.397 178.469 C 244.354 178.399,243.630 177.986,242.787 177.551 C 236.111 174.103,232.950 168.443,232.239 158.667 C 232.109 156.879,231.956 155.210,231.898 154.958 C 231.833 154.670,231.863 154.500,231.981 154.500 C 232.083 154.500,232.167 154.387,232.167 154.250 C 232.167 153.937,231.817 153.936,231.542 154.249 M145.295 164.542 C 145.161 164.748,144.449 165.967,143.713 167.250 C 142.977 168.533,141.142 171.721,139.635 174.333 C 138.128 176.946,136.085 180.490,135.094 182.208 L 133.294 185.333 121.060 185.333 L 108.827 185.333 109.288 184.535 C 109.542 184.095,112.293 179.333,115.402 173.951 L 121.054 164.167 133.296 164.167 L 145.538 164.167 145.295 164.542 M110.177 187.625 C 110.847 188.794,112.158 191.063,113.091 192.667 C 114.024 194.271,116.122 197.908,117.753 200.750 C 119.385 203.592,120.794 206.038,120.886 206.185 C 121.012 206.390,120.841 206.824,120.161 208.019 C 118.881 210.269,86.663 266.084,85.466 268.125 L 84.464 269.833 72.298 269.833 C 61.936 269.833,60.144 269.799,60.221 269.600 C 60.270 269.472,65.351 260.640,71.513 249.975 C 77.674 239.310,83.970 228.408,85.503 225.750 C 87.036 223.092,92.664 213.342,98.009 204.083 C 103.354 194.825,107.955 186.856,108.232 186.375 C 108.885 185.243,108.770 185.169,110.177 187.625 M278.015 207.737 C 277.457 208.692,277.000 209.517,277.000 209.570 C 277.000 209.623,280.254 209.667,284.232 209.667 L 291.464 209.667 292.482 207.947 C 293.042 207.001,293.500 206.176,293.500 206.114 C 293.500 206.051,290.244 206.000,286.265 206.000 L 279.031 206.000 278.015 207.737 " stroke="none" fill="#ffffff" fill-rule="evenodd"></path></g></svg>